<?xml version="1.0" encoding="utf-8"?>
<!-- Generator: Adobe Illustrator 19.2.1, SVG Export Plug-In . SVG Version: 6.00 Build 0)  -->
<svg version="1.1" id="layer" xmlns="http://www.w3.org/2000/svg" xmlns:xlink="http://www.w3.org/1999/xlink" x="0px" y="0px"
	 viewBox="0 0 652 652" style="enable-background:new 0 0 652 652;" xml:space="preserve">
<style type="text/css">
	.st0{fill:#E20074;}
</style>
<g id="Logo_Dark">
	<path class="st0" d="M26.5,374.3v-57.5H84v57.5H26.5z M207.3,374.3v-57.5h57.5v57.5H207.3z M388.1,374.3v-57.5h57.5v57.5H388.1z
		 M569,374.3v-57.5h57.5v57.5H569z"/>
	<path class="st0" d="M125.1,191.4c-24.2,0.7-45.7,9-59.3,24.5c-12.9,14.8-21,37.8-23.9,68.4l-15.4-2.7l3-104.5H262l2.9,104.5
		l-15.4,2.7c-3-30.9-11-53.6-23.9-68.4c-13.6-15.5-35.2-23.8-59.3-24.5v218.3c0,19,4.7,31.4,10.3,37.1c4.6,4.9,11.6,7.9,22.6,8.9
		c3.5,0.2,8.6,0.5,16.4,0.5v16.8H75.8v-16.8c7.8,0,13-0.2,16.4-0.5c11-1,17.9-3.9,22.6-8.9c5.6-5.7,10.3-18,10.3-37.1V191.4z"/>
</g>
</svg>
