<svg xmlns="http://www.w3.org/2000/svg" viewBox="0 0 8465.6 1960.8"><defs><style>.cls-1{fill:#fff;}</style></defs><title>Asset 3</title><g id="Layer_2" data-name="Layer 2"><g id="Layer_1-2" data-name="Layer 1"><path class="cls-1" d="M1140.66,590q31.23,43.22,60.83,87.44"/><path class="cls-1" d="M424.83,973.33A212,212,0,0,0,342.59,812.4c-92.78-71.84-226.24-54.88-298.09,37.91s-54.89,226.24,37.89,298.08,226.24,54.89,298.09-37.89a212.61,212.61,0,0,0,23.65-38.44c7.47,1.5,15,3.32,22.43,4.77q157.35,30.47,317.68,46.07,22.08-48.84,47-97.13a3336.41,3336.41,0,0,1-345.53-48C438.78,976.42,431.8,974.72,424.83,973.33Z"/><path class="cls-1" d="M815.56,1129.06c36.43,2.83,72.94,5.23,109.57,6.92q24.2-50.14,51.14-99.2-56.09-1.82-111.84-5.51Q838.53,1079.83,815.56,1129.06Z"/><path class="cls-1" d="M2115.4,812.4c-92.78-71.84-226.24-54.88-298.1,37.91a211.3,211.3,0,0,0-44.17,123.43c-243.4,45.48-484.26,67.18-721.15,64.64-18.81,32.87-36.5,66.38-53.43,100.18q45.39,1.15,91,1.23c231.72,0,467-22.63,704.55-67.22a211,211,0,0,0,61.14,75.82c92.78,71.86,226.24,54.89,298.09-37.89S2208.18,884.26,2115.4,812.4Z"/><path class="cls-1" d="M1331.2,1030.06c-37,2.82-74,4.78-110.76,6.22q26.07,48.84,50.22,98.5c36.17-1.53,72.59-3.93,108.92-6.85C1364.09,1095,1347.88,1062.44,1331.2,1030.06Z"/><path class="cls-1" d="M1159.55,737.16a.75.75,0,0,1,.07-.12c-6.22-9.47-12.88-18.72-19.21-28.13q-134.49-199.18-301.47-382.8a211.35,211.35,0,0,0,31.95-91C883.37,118.4,798.88,13.69,682.2,1.22s-221.39,72-233.86,188.69S520.35,411.3,637,423.78a211.32,211.32,0,0,0,128.69-27.44c99.27,109.42,190.22,223,271.7,341l-.13.2q31.43,45.23,60.87,91.16c29.86,46.67,58.82,93.74,85.95,141.64,37.21-1,75-3,112.78-5.48C1254.64,887.39,1208.64,811.56,1159.55,737.16Z"/><path class="cls-1" d="M1201.49,677.48l.19.3c3.78-5.17,7.31-10.53,11.12-15.67,67.51-91.2,141.86-180,220.93-266.25a211.49,211.49,0,0,0,84.54,27.92c116.68,12.47,221.39-72,233.85-188.7s-72-221.39-188.68-233.86-221.4,72-233.86,188.69a211.41,211.41,0,0,0,31.66,135.84c-78.61,85.69-152.72,174-220.41,264.53Z"/><path class="cls-1" d="M1058.52,891.57q-29.34-46.89-60.81-93.12c-4.07,6.47-8.52,12.83-12.55,19.31-131,210.92-235.12,435.57-309.61,667.77-5.31,16.54-9.94,33.54-15,50.28-107.72-.6-200.53,80.49-212.22,189.91-12.47,116.69,72,221.39,188.69,233.85s221.39-72,233.86-188.68c9.53-89.14-37.61-171.14-112.38-210.51,4.44-14.66,8.48-29.55,13.14-44C841.17,1299.51,937.81,1089.53,1058.52,891.57Z"/><path class="cls-1" d="M1671,1580.31a211.56,211.56,0,0,0-134.3-44.36c-4.42-14.46-8.43-29.12-13.05-43.46a3061.84,3061.84,0,0,0-114.54-299.41c-35.69,3.14-71.52,5.54-107.29,7.39a2958.64,2958.64,0,0,1,125.79,323c4.09,12.66,7.61,25.62,11.53,38.38a211.6,211.6,0,0,0-66.23,56.36C1301,1711,1318,1844.44,1410.75,1916.3s226.24,54.88,298.09-37.9S1763.73,1652.16,1671,1580.31Z"/><path class="cls-1" d="M2933.42,716.24q45.09-12.86,117.23-24.43t159.75-11.57q82.45,0,137.85,22.51t88.25,63q32.85,40.51,46.39,97.76T3496.42,989v378.24h-156V1013.58q0-54-7.08-92t-23.17-61.74q-16.1-23.79-43.77-34.72t-67.57-10.93a534.06,534.06,0,0,0-61.78,3.75q-32.19,3.75-47.63,6.25v543h-156Z"/><path class="cls-1" d="M4295.09,1030q0,79.82-23.17,145.46t-65.62,112q-42.48,46.35-102.32,72.09t-131.89,25.74q-72.06,0-131.26-25.74t-101.66-72.09q-42.47-46.34-66.28-112T3649.09,1030q0-79.82,23.8-144.82t66.92-111.36a295.63,295.63,0,0,1,102.3-71.43q59.2-25.11,130-25.11t130.61,25.11q59.84,25.1,102.31,71.43t66.27,111.36Q4295.08,950.17,4295.09,1030Zm-160,0q0-100.49-43-159.1t-120-58.62q-77,0-120,58.62t-43,159.1q0,101.76,43,161t120,59.25q77,0,120-59.25T4135.09,1030Z"/><path class="cls-1" d="M5024.49,1347.24q-46.31,14-116.44,25.51a910.6,910.6,0,0,1-147.33,11.49q-79.77,0-142.81-24.46t-107.44-70.14Q4466.09,1244,4442.29,1179t-23.8-146.08q0-79.79,19.92-144.78t58.5-111.33a260.82,260.82,0,0,1,93.86-71.44q55.29-25.08,127.3-25.09,48.84,0,86.12,11.48t64.3,25.52v-323l156-26Zm-446-318.08q0,103,48.75,161.53T4762,1249.24q37.2,0,63.5-3.13t43-6.87v-386q-20.53-14.29-54.55-26.64a210.49,210.49,0,0,0-72.48-12.36q-84.71,0-123.83,57.92T4578.49,1029.16Z"/><path class="cls-1" d="M5185.32,1034q0-88.86,26.36-155.82t70.09-111.39a290.07,290.07,0,0,1,100.3-67,310.16,310.16,0,0,1,115.75-22.54q138.89,0,216.68,86.32t77.82,257.69q0,12.9-.64,29t-1.94,29H5346.32q6.42,81.13,57.07,125.57t146.9,44.43q56.43,0,103.26-10.24t73.77-21.76l21,127q-12.87,6.46-35.36,13.54a497.89,497.89,0,0,1-51.41,12.91q-28.92,5.8-62.34,9.69a596.54,596.54,0,0,1-68.13,3.86q-88.68,0-154.25-26.39t-108-73.41q-42.42-47-63-110.75T5185.32,1034Zm451-69.72a204.87,204.87,0,0,0-9-61.13q-9-29-26.33-50.19a124.78,124.78,0,0,0-42.38-33.45q-25.05-12.24-59.73-12.23-36,0-62.94,13.51a143.54,143.54,0,0,0-45.59,35.39,162,162,0,0,0-28.91,50.19,272.62,272.62,0,0,0-14.12,57.91Z"/><path class="cls-1" d="M5957,716.24q45.11-12.86,117.24-24.43T6234,680.24q82.45,0,137.84,22.51t88.25,63q32.86,40.51,46.39,97.76T6520,989v378.24H6364V1013.58q0-54-7.07-92t-23.18-61.74q-16.09-23.79-43.76-34.72t-67.58-10.93a534.19,534.19,0,0,0-61.78,3.75q-32.18,3.75-47.63,6.25v543H5957Z"/><path class="cls-1" d="M6672.66,1034q0-88.86,26.36-155.82t70.09-111.39a290.07,290.07,0,0,1,100.3-67,310.16,310.16,0,0,1,115.75-22.54q138.89,0,216.68,86.32t77.82,257.69q0,12.9-.64,29t-1.94,29H6833.66q6.42,81.13,57.07,125.57t146.9,44.43q56.43,0,103.26-10.24t73.77-21.76l21,127q-12.87,6.46-35.36,13.54a497.89,497.89,0,0,1-51.41,12.91q-28.92,5.8-62.34,9.69a596.54,596.54,0,0,1-68.13,3.86q-88.68,0-154.25-26.39t-108-73.41q-42.42-47-63-110.75T6672.66,1034Zm451-69.72a204.87,204.87,0,0,0-9-61.13q-9-29-26.33-50.19A124.78,124.78,0,0,0,7046,819.47q-25.05-12.24-59.73-12.23-36,0-62.94,13.51a143.54,143.54,0,0,0-45.59,35.39,162,162,0,0,0-28.91,50.19,272.62,272.62,0,0,0-14.12,57.91Z"/><path class="cls-1" d="M7407.32,1031.38q0-74.67,23.15-139.72T7496.67,779q43.08-47.65,104.8-74.71t138.85-27q95.15,0,180,35l-33,127q-27-11.58-61-19.28a327.69,327.69,0,0,0-72.61-7.72q-91.28,0-138.8,57.37t-47.55,161.77q0,100.55,44.86,159.2t151.29,58.66a396.76,396.76,0,0,0,78.18-7.71q38.46-7.71,66.67-19.29l22,129q-25.71,12.71-77.75,22.84a558.81,558.81,0,0,1-107.29,10.16q-86.11,0-149.71-26.39t-105.37-73.41q-41.76-47-62.31-112T7407.32,1031.38Z"/><path class="cls-1" d="M8043.6,516.24l156-26v204h239v130h-239v273.67q0,81,25.67,115.64t87.27,34.69q42.34,0,75.07-9.1t52-16.9l26,123.87q-27,11.63-70.77,23.88t-102.92,12.25q-72,0-120.3-19.3t-76.56-56q-28.3-36.66-39.87-88.79t-11.58-119Z"/></g></g></svg>