<?xml version="1.0" encoding="utf-8"?>
<!-- Generator: Adobe Illustrator 25.0.0, SVG Export Plug-In . SVG Version: 6.00 Build 0)  -->
<svg version="1.1" id="Layer_1" xmlns="http://www.w3.org/2000/svg" xmlns:xlink="http://www.w3.org/1999/xlink" x="0px" y="0px"
	 viewBox="0 0 1440 900" style="enable-background:new 0 0 1440 900;" xml:space="preserve">
<style type="text/css">
	.st0{fill:#FFFFFF;}
</style>
<g>
	<g>
		<path class="st0" d="M314.7,778.6v23.6c0,28.8-6.8,47.4-21.4,62.4c-18,18.5-53,33-124,33c-81,0-113.5-17.4-132.3-36.8
			c-16.2-16.8-25.9-40.6-25.9-70.9c0-28.2,8.5-53.3,25.9-71.2c18.8-19.4,56.5-36.5,132.3-36.5c60.4,0,107.2,10.9,131.4,23.5v41.8
			c-28.8-16.2-76.4-28.6-131.4-28.6c-55.3,0-84.7,10.3-97.8,23.8c-10.5,10.9-16,25.9-16,47.1c0,22.4,6,37.1,16,47.4
			c13.1,13.6,37.4,24.7,97.8,24.7c47.9,0,78.1-8.8,89.5-20.6c7.7-7.9,10.6-15.9,10.6-26.2H146.8v-36.5H314.7z"/>
		<path class="st0" d="M567.7,849c4-4.1,5.4-9.1,5.4-14.4c0-6.2-1.4-10.9-4.8-14.4c-6.3-6.5-18-9.1-88.4-12.9
			c-79.6-4.1-103.8-10.9-117.5-25c-8-8.3-11.4-19.7-11.4-34.4c0-15,3.1-29.1,14-40.3c14-14.4,41.4-24.4,111.5-24.4
			c55.6,0,97.5,8.2,124,19.1v38.6c-30.2-13.2-80.4-23-124-23c-54.5,0-70.1,5.3-76.7,12.1c-3.4,3.5-4.8,8.2-4.8,13.8
			c0,5.3,1.4,9.7,4.3,12.7c6,6.2,19.4,9.7,84.4,12.9c84.1,4.4,107.5,10.9,121.2,25c8,8.2,12.3,20.9,12.3,35.6
			c0,15.3-3.1,29.4-14,40.6c-14.2,14.7-42.5,26.2-117.2,26.2c-55.3,0-109.5-9.1-140.3-23v-38.5c29.7,14.7,92.7,26.8,140.3,26.8
			C541.7,861.9,559.7,857.2,567.7,849z"/>
		<path class="st0" d="M1002.9,892.8h-40.7V720.4L855.7,892.8h-55.1L694.1,720.4v172.5h-40.4v-206h66.4L829,864.6l109.1-177.7h64.8
			V892.8z"/>
		<path class="st0" d="M1221.1,685.6l134.7,207.2h-49.2l-31-48.6h-169l-31,48.6h-47.3L1163,685.6H1221.1z M1129.8,807.8h122.5
			l-61.4-96.2L1129.8,807.8z"/>
	</g>
	<g>
		<path class="st0" d="M1308.5,693H1295v-7.5h34.5v7.5h-13.5v38.7h-7.5V693z"/>
		<path class="st0" d="M1337.5,685.5h8l13,21.9l13-21.9h8v46.3h-7.5v-33.2l-13.4,21.8h-0.2l-13.3-21.7v33.1h-7.4V685.5z"/>
	</g>
	<g>
		<rect x="17.4" y="412" class="st0" width="143.6" height="169.3"/>
		<rect x="215" y="327.4" class="st0" width="215.3" height="253.9"/>
		<rect x="484.3" y="200.4" class="st0" width="322.6" height="380.9"/>
		<rect x="867.4" y="10" class="st0" width="477.5" height="571.3"/>
	</g>
</g>
</svg>
